<svg id="Layer_1" data-name="Layer 1" xmlns="http://www.w3.org/2000/svg" viewBox="0 0 595.34 595.34"><title>spaceship3</title><circle cx="297.67" cy="296.86" r="289.91" fill="#00a79d" stroke="#be1e2d" stroke-miterlimit="10" stroke-width="1.94" opacity="0.34"/><rect x="63.93" y="222.48" width="24.68" height="148.77" fill="#00a79d"/><rect x="102.75" y="222.48" width="24.68" height="148.77" fill="#00a79d"/><rect x="135.55" y="202.8" width="24.68" height="188.12" fill="#00a79d"/><rect x="174.37" y="202.8" width="24.68" height="188.12" fill="#00a79d"/><rect x="63.93" y="288.46" width="467.03" height="18.43" fill="#00a79d"/><rect x="629.61" y="223.29" width="24.68" height="148.77" transform="translate(1160.57 595.34) rotate(180)" fill="#00a79d"/><rect x="590.79" y="223.29" width="24.68" height="148.77" transform="translate(1082.93 595.34) rotate(180)" fill="#00a79d"/><rect x="557.99" y="203.61" width="24.68" height="188.12" transform="translate(1017.34 595.34) rotate(180)" fill="#00a79d"/><rect x="519.17" y="203.61" width="24.68" height="188.12" transform="translate(939.71 595.34) rotate(180)" fill="#00a79d"/><rect x="511.06" y="287.64" width="143.23" height="18.43" transform="translate(1042.02 593.72) rotate(180)" fill="#00a79d"/><rect x="223.31" y="292.21" width="159.38" height="9.3" fill="#00a79d"/><rect x="207.16" y="273.78" width="181.01" height="46.16" rx="14.68" ry="14.68" fill="#00a79d"/><rect x="290.16" y="296.86" width="15.02" height="78.44" rx="3.23" ry="3.23" fill="#00a79d"/><rect x="416.69" y="335.88" width="8.61" height="44.97" rx="2.95" ry="2.95" transform="translate(656.04 -62.63) rotate(90)" fill="#00a79d"/><rect x="274.06" y="267.64" width="47.23" height="58.43" rx="6.61" ry="6.61" fill="#00a79d"/><rect x="288.67" y="255.57" width="18" height="23.98" rx="5.79" ry="5.79" fill="#00a79d"/><path d="M421,0C256.58,0,123.32,133.28,123.32,297.67S256.58,595.34,421,595.34,718.67,462.07,718.67,297.67,585.39,0,421,0Zm0,587.57c-160.12,0-289.93-129.78-289.93-289.9S260.88,7.77,421,7.77s289.9,129.79,289.9,289.9S581.11,587.57,421,587.57Z" transform="translate(-123.32)" fill="#00a79d"/></svg>