<svg id="Layer_1" data-name="Layer 1" xmlns="http://www.w3.org/2000/svg" viewBox="0 0 308.27 308.27"><title>spaceship2</title><circle cx="154.13" cy="153.71" r="149.61" fill="#d81e41" stroke="#be1e2d" stroke-miterlimit="10" opacity="0.2"/><rect x="33.51" y="115.33" width="12.74" height="76.77" fill="#d81e41"/><rect x="53.54" y="115.33" width="12.74" height="76.77" fill="#d81e41"/><rect x="70.47" y="105.17" width="12.74" height="97.08" fill="#d81e41"/><rect x="90.5" y="105.17" width="12.74" height="97.08" fill="#d81e41"/><rect x="33.51" y="149.38" width="241.02" height="9.51" fill="#d81e41"/><rect x="528.04" y="259.13" width="12.74" height="76.77" transform="translate(802.57 451.65) rotate(180)" fill="#d81e41"/><rect x="508.01" y="259.13" width="12.74" height="76.77" transform="translate(762.51 451.65) rotate(180)" fill="#d81e41"/><rect x="491.09" y="248.98" width="12.74" height="97.08" transform="translate(728.66 451.65) rotate(180)" fill="#d81e41"/><rect x="471.05" y="248.98" width="12.74" height="97.08" transform="translate(688.59 451.65) rotate(180)" fill="#d81e41"/><rect x="466.86" y="292.34" width="73.92" height="9.51" transform="translate(741.39 450.81) rotate(180)" fill="#d81e41"/><rect x="115.76" y="151.31" width="82.25" height="4.8" fill="#d81e41"/><rect x="107.43" y="141.8" width="93.42" height="23.82" rx="7.57" ry="7.57" fill="#d81e41"/><rect x="150.26" y="153.71" width="7.75" height="40.48" rx="1.67" ry="1.67" fill="#d81e41"/><rect x="418.16" y="317.24" width="4.44" height="23.21" rx="1.52" ry="1.52" transform="translate(482.98 -234.93) rotate(90)" fill="#d81e41"/><rect x="141.95" y="138.64" width="24.38" height="30.15" rx="3.41" ry="3.41" fill="#d81e41"/><rect x="149.49" y="132.4" width="9.29" height="12.38" rx="2.99" ry="2.99" fill="#d81e41"/><path d="M420.39,143.9A153.62,153.62,0,1,0,574,297.52,153.62,153.62,0,0,0,420.39,143.9Zm0,303.23A149.61,149.61,0,1,1,570,297.52,149.62,149.62,0,0,1,420.39,447.13Z" transform="translate(-266.25 -143.39)" fill="#d81e41" stroke="#be1e2d" stroke-miterlimit="10" stroke-width="1.03"/></svg>